<svg xmlns="http://www.w3.org/2000/svg" xmlns:xlink="http://www.w3.org/1999/xlink" viewBox="0 0 1201 1201"><defs><style>.cls-1{isolation:isolate;}.cls-2{fill:#f7f7f7;}.cls-3{fill:#fcfcfc;}.cls-4{fill:#f2f2f2;}.cls-5{fill:#ededed;}.cls-6{stroke:#f2f2f2;stroke-miterlimit:10;mix-blend-mode:multiply;fill:url(#radial-gradient);}.cls-7{fill:#fff;opacity:0.44;}</style><radialGradient id="radial-gradient" cx="600.5" cy="600.5" r="939.49" gradientUnits="userSpaceOnUse"><stop offset="0" stop-color="#fff"/><stop offset="0.48" stop-color="#fbfbfb"/><stop offset="0.9" stop-color="#f1f1f1"/><stop offset="1" stop-color="#ededed"/></radialGradient></defs><g class="cls-1"><g id="Layer_1" data-name="Layer 1"><polygon class="cls-2" points="0.5 0.5 0.5 0.5 0.5 0.5 0.5 0.5"/><polygon class="cls-2" points="100.5 14.45 0.5 0.5 0.5 0.5 100.5 200.5 100.5 14.45"/><polygon class="cls-2" points="200.5 300.5 200.5 186.59 100.5 200.5 200.5 300.5"/><polygon class="cls-2" points="300.5 14.45 200.5 0.5 300.5 200.5 300.5 14.45"/><polygon class="cls-2" points="400.5 300.5 400.5 186.59 300.5 200.5 400.5 300.5"/><polygon class="cls-2" points="500.5 14.45 400.5 0.5 500.5 200.5 500.5 14.45"/><polygon class="cls-2" points="600.5 300.5 600.5 186.59 500.5 200.5 600.5 300.5"/><polygon class="cls-2" points="700.5 14.45 600.5 0.5 700.5 200.5 700.5 14.45"/><polygon class="cls-2" points="800.5 300.5 800.5 186.59 700.5 200.5 800.5 300.5"/><polygon class="cls-2" points="900.5 14.45 800.5 0.5 900.5 200.5 900.5 14.45"/><polygon class="cls-2" points="1000.5 300.5 1000.5 186.59 900.5 200.5 1000.5 300.5"/><polygon class="cls-2" points="1100.5 14.45 1000.5 0.5 1100.5 200.5 1100.5 14.45"/><polygon class="cls-2" points="1200.5 300.5 1200.5 186.59 1100.5 200.5 1200.5 300.5"/><polygon class="cls-2" points="0.5 300.5 0.5 300.5 0.5 300.5 0.5 300.5"/><polygon class="cls-2" points="100.5 314.45 0.5 300.5 0.5 300.5 100.5 500.5 100.5 314.45"/><polygon class="cls-2" points="200.5 600.5 200.5 486.59 100.5 500.5 200.5 600.5"/><polygon class="cls-2" points="200.5 300.5 300.5 500.5 300.5 314.45 200.5 300.5"/><polygon class="cls-2" points="400.5 600.5 400.5 486.59 300.5 500.5 400.5 600.5"/><polygon class="cls-2" points="400.5 300.5 500.5 500.5 500.5 314.45 400.5 300.5"/><polygon class="cls-2" points="600.5 600.5 600.5 486.59 500.5 500.5 600.5 600.5"/><polygon class="cls-2" points="600.5 300.5 700.5 500.5 700.5 314.45 600.5 300.5"/><polygon class="cls-2" points="800.5 600.5 800.5 486.59 700.5 500.5 800.5 600.5"/><polygon class="cls-2" points="800.5 300.5 900.5 500.5 900.5 314.45 800.5 300.5"/><polygon class="cls-2" points="1000.5 600.5 1000.5 486.59 900.5 500.5 1000.5 600.5"/><polygon class="cls-2" points="1000.5 300.5 1100.5 500.5 1100.5 314.45 1000.5 300.5"/><polygon class="cls-2" points="1200.5 600.5 1200.5 486.59 1100.5 500.5 1200.5 600.5"/><polygon class="cls-2" points="0.5 600.5 0.5 600.5 0.5 600.5 0.5 600.5"/><polygon class="cls-2" points="100.5 614.45 0.5 600.5 0.5 600.5 100.5 800.5 100.5 614.45"/><polygon class="cls-2" points="200.5 900.5 200.5 786.59 100.5 800.5 200.5 900.5"/><polygon class="cls-2" points="200.5 600.5 300.5 800.5 300.5 614.45 200.5 600.5"/><polygon class="cls-2" points="400.5 900.5 400.5 786.59 300.5 800.5 400.5 900.5"/><polygon class="cls-2" points="400.5 600.5 500.5 800.5 500.5 614.45 400.5 600.5"/><polygon class="cls-2" points="600.5 900.5 600.5 786.59 500.5 800.5 600.5 900.5"/><polygon class="cls-2" points="600.5 600.5 700.5 800.5 700.5 614.45 600.5 600.5"/><polygon class="cls-2" points="800.5 900.5 800.5 786.59 700.5 800.5 800.5 900.5"/><polygon class="cls-2" points="800.5 600.5 900.5 800.5 900.5 614.45 800.5 600.5"/><polygon class="cls-2" points="1000.5 900.5 1000.5 786.59 900.5 800.5 1000.5 900.5"/><polygon class="cls-2" points="1000.5 600.5 1100.5 800.5 1100.5 614.45 1000.5 600.5"/><polygon class="cls-2" points="1200.5 900.5 1200.5 786.59 1100.5 800.5 1200.5 900.5"/><polygon class="cls-2" points="0.5 900.5 0.5 900.5 0.5 900.5 0.5 900.5"/><polygon class="cls-2" points="100.5 914.45 0.5 900.5 0.5 900.5 100.5 1100.5 100.5 914.45"/><polygon class="cls-2" points="100.5 1100.5 200.5 1200.5 200.5 1086.59 100.5 1100.5"/><polygon class="cls-2" points="200.5 900.5 300.5 1100.5 300.5 914.45 200.5 900.5"/><polygon class="cls-2" points="300.5 1100.5 400.5 1200.5 400.5 1086.59 300.5 1100.5"/><polygon class="cls-2" points="400.5 900.5 500.5 1100.5 500.5 914.45 400.5 900.5"/><polygon class="cls-2" points="500.5 1100.5 600.5 1200.5 600.5 1086.59 500.5 1100.5"/><polygon class="cls-2" points="600.5 900.5 700.5 1100.5 700.5 914.45 600.5 900.5"/><polygon class="cls-2" points="700.5 1100.5 800.5 1200.5 800.5 1086.59 700.5 1100.5"/><polygon class="cls-2" points="800.5 900.5 900.5 1100.5 900.5 914.45 800.5 900.5"/><polygon class="cls-2" points="900.5 1100.5 1000.5 1200.5 1000.5 1086.59 900.5 1100.5"/><polygon class="cls-2" points="1000.5 900.5 1100.5 1100.5 1100.5 914.45 1000.5 900.5"/><polygon class="cls-2" points="1200.5 1200.5 1200.5 1086.59 1100.5 1100.5 1200.5 1200.5"/></g><g id="Layer_6" data-name="Layer 6"><rect class="cls-3" x="0.5" y="186.59" height="113.91"/><polygon class="cls-3" points="0.5 186.59 0.5 300.5 100.5 200.5 0.5 186.59"/><polygon class="cls-3" points="200.5 300.5 300.5 200.5 200.5 186.59 200.5 300.5"/><polygon class="cls-3" points="400.5 300.5 500.5 200.5 400.5 186.59 400.5 300.5"/><polygon class="cls-3" points="600.5 300.5 700.5 200.5 600.5 186.59 600.5 300.5"/><polygon class="cls-3" points="800.5 300.5 900.5 200.5 800.5 186.59 800.5 300.5"/><polygon class="cls-3" points="1000.5 300.5 1100.5 200.5 1000.5 186.59 1000.5 300.5"/><rect class="cls-3" x="0.5" y="486.59" height="113.91"/><polygon class="cls-3" points="0.5 486.59 0.5 600.5 100.5 500.5 0.5 486.59"/><polygon class="cls-3" points="200.5 600.5 300.5 500.5 200.5 486.59 200.5 600.5"/><polygon class="cls-3" points="400.5 600.5 500.5 500.5 400.5 486.59 400.5 600.5"/><polygon class="cls-3" points="600.5 600.5 700.5 500.5 600.5 486.59 600.5 600.5"/><polygon class="cls-3" points="800.5 600.5 900.5 500.5 800.5 486.59 800.5 600.5"/><polygon class="cls-3" points="1000.5 600.5 1100.5 500.5 1000.5 486.59 1000.5 600.5"/><rect class="cls-3" x="0.5" y="786.59" height="113.91"/><polygon class="cls-3" points="0.5 786.59 0.5 900.5 100.5 800.5 0.5 786.59"/><polygon class="cls-3" points="200.5 900.5 300.5 800.5 200.5 786.59 200.5 900.5"/><polygon class="cls-3" points="400.5 900.5 500.5 800.5 400.5 786.59 400.5 900.5"/><polygon class="cls-3" points="600.5 900.5 700.5 800.5 600.5 786.59 600.5 900.5"/><polygon class="cls-3" points="800.5 900.5 900.5 800.5 800.5 786.59 800.5 900.5"/><polygon class="cls-3" points="1000.5 900.5 1100.5 800.5 1000.5 786.59 1000.5 900.5"/><rect class="cls-3" x="0.5" y="1086.59" height="113.91"/><polygon class="cls-3" points="0.5 1086.59 0.5 1200.5 100.5 1100.5 0.5 1086.59"/><polygon class="cls-3" points="200.5 1086.59 200.5 1200.5 300.5 1100.5 200.5 1086.59"/><polygon class="cls-3" points="400.5 1086.59 400.5 1200.5 500.5 1100.5 400.5 1086.59"/><polygon class="cls-3" points="600.5 1086.59 600.5 1200.5 700.5 1100.5 600.5 1086.59"/><polygon class="cls-3" points="800.5 1086.59 800.5 1200.5 900.5 1100.5 800.5 1086.59"/><polygon class="cls-3" points="1000.5 1086.59 1000.5 1200.5 1100.5 1100.5 1000.5 1086.59"/><polygon class="cls-3" points="100.5 200.5 200.5 0.5 100.5 14.45 100.5 200.5"/><polygon class="cls-3" points="300.5 200.5 400.5 0.5 300.5 14.45 300.5 200.5"/><polygon class="cls-3" points="500.5 200.5 600.5 0.5 500.5 14.45 500.5 200.5"/><polygon class="cls-3" points="700.5 200.5 800.5 0.5 700.5 14.45 700.5 200.5"/><polygon class="cls-3" points="900.5 200.5 1000.5 0.5 900.5 14.45 900.5 200.5"/><polygon class="cls-3" points="1100.5 200.5 1200.5 0.5 1100.5 14.45 1100.5 200.5"/><polygon class="cls-3" points="100.5 500.5 200.5 300.5 100.5 314.45 100.5 500.5"/><polygon class="cls-3" points="300.5 500.5 400.5 300.5 300.5 314.45 300.5 500.5"/><polygon class="cls-3" points="500.5 500.5 600.5 300.5 500.5 314.45 500.5 500.5"/><polygon class="cls-3" points="700.5 500.5 800.5 300.5 700.5 314.45 700.5 500.5"/><polygon class="cls-3" points="900.5 500.5 1000.5 300.5 900.5 314.45 900.5 500.5"/><polygon class="cls-3" points="1100.5 500.5 1200.5 300.5 1100.5 314.45 1100.5 500.5"/><polygon class="cls-3" points="100.5 800.5 200.5 600.5 100.5 614.45 100.5 800.5"/><polygon class="cls-3" points="300.5 800.5 400.5 600.5 300.5 614.45 300.5 800.5"/><polygon class="cls-3" points="500.5 800.5 600.5 600.5 500.5 614.45 500.5 800.5"/><polygon class="cls-3" points="700.5 800.5 800.5 600.5 700.5 614.45 700.5 800.5"/><polygon class="cls-3" points="900.5 800.5 1000.5 600.5 900.5 614.45 900.5 800.5"/><polygon class="cls-3" points="1100.5 800.5 1200.5 600.5 1100.5 614.45 1100.5 800.5"/><polygon class="cls-3" points="100.5 1100.5 200.5 900.5 100.5 914.45 100.5 1100.5"/><polygon class="cls-3" points="300.5 1100.5 400.5 900.5 300.5 914.45 300.5 1100.5"/><polygon class="cls-3" points="500.5 1100.5 600.5 900.5 500.5 914.45 500.5 1100.5"/><polygon class="cls-3" points="700.5 1100.5 800.5 900.5 700.5 914.45 700.5 1100.5"/><polygon class="cls-3" points="900.5 1100.5 1000.5 900.5 900.5 914.45 900.5 1100.5"/><polygon class="cls-3" points="1100.5 1100.5 1200.5 900.5 1100.5 914.45 1100.5 1100.5"/></g><g id="Layer_5" data-name="Layer 5"><rect class="cls-4" x="0.5" y="0.5" height="186.05"/><polygon class="cls-4" points="0.5 0.5 0.5 186.55 100.5 200.5 0.5 0.5"/><polygon class="cls-4" points="200.5 0.5 100.5 0.5 100.5 14.41 200.5 0.5"/><polygon class="cls-4" points="300.5 200.5 200.5 0.5 200.5 186.55 300.5 200.5"/><polygon class="cls-4" points="400.5 0.5 300.5 0.5 300.5 14.41 400.5 0.5"/><polygon class="cls-4" points="500.5 200.5 400.5 0.5 400.5 186.55 500.5 200.5"/><polygon class="cls-4" points="600.5 0.5 500.5 0.5 500.5 14.41 600.5 0.5"/><polygon class="cls-4" points="700.5 200.5 600.5 0.5 600.5 186.55 700.5 200.5"/><polygon class="cls-4" points="800.5 0.5 700.5 0.5 700.5 14.41 800.5 0.5"/><polygon class="cls-4" points="900.5 200.5 800.5 0.5 800.5 186.55 900.5 200.5"/><polygon class="cls-4" points="1000.5 0.5 900.5 0.5 900.5 14.41 1000.5 0.5"/><polygon class="cls-4" points="1100.5 200.5 1000.5 0.5 1000.5 186.55 1100.5 200.5"/><polygon class="cls-4" points="1200.5 0.5 1100.5 0.5 1100.5 14.41 1200.5 0.5"/><polygon class="cls-4" points="1200.5 186.55 1200.5 0.5 1200.5 186.55 1200.5 186.55"/><rect class="cls-4" x="0.5" y="300.5" height="186.05"/><polygon class="cls-4" points="0.5 300.5 0.5 486.55 100.5 500.5 0.5 300.5"/><polygon class="cls-4" points="100.5 314.41 200.5 300.5 100.5 200.5 100.5 314.41"/><polygon class="cls-4" points="200.5 486.55 300.5 500.5 200.5 300.5 200.5 486.55"/><polygon class="cls-4" points="300.5 314.41 400.5 300.5 300.5 200.5 300.5 314.41"/><polygon class="cls-4" points="400.5 486.55 500.5 500.5 400.5 300.5 400.5 486.55"/><polygon class="cls-4" points="500.5 314.41 600.5 300.5 500.5 200.5 500.5 314.41"/><polygon class="cls-4" points="600.5 486.55 700.5 500.5 600.5 300.5 600.5 486.55"/><polygon class="cls-4" points="700.5 314.41 800.5 300.5 700.5 200.5 700.5 314.41"/><polygon class="cls-4" points="800.5 486.55 900.5 500.5 800.5 300.5 800.5 486.55"/><polygon class="cls-4" points="900.5 314.41 1000.5 300.5 900.5 200.5 900.5 314.41"/><polygon class="cls-4" points="1000.5 486.55 1100.5 500.5 1000.5 300.5 1000.5 486.55"/><polygon class="cls-4" points="1100.5 314.41 1200.5 300.5 1100.5 200.5 1100.5 314.41"/><polygon class="cls-4" points="1200.5 486.55 1200.5 300.5 1200.5 486.55 1200.5 486.55"/><rect class="cls-4" x="0.5" y="600.5" height="186.05"/><polygon class="cls-4" points="0.5 600.5 0.5 786.55 100.5 800.5 0.5 600.5"/><polygon class="cls-4" points="100.5 614.41 200.5 600.5 100.5 500.5 100.5 614.41"/><polygon class="cls-4" points="200.5 786.55 300.5 800.5 200.5 600.5 200.5 786.55"/><polygon class="cls-4" points="300.5 614.41 400.5 600.5 300.5 500.5 300.5 614.41"/><polygon class="cls-4" points="400.5 786.55 500.5 800.5 400.5 600.5 400.5 786.55"/><polygon class="cls-4" points="500.5 614.41 600.5 600.5 500.5 500.5 500.5 614.41"/><polygon class="cls-4" points="600.5 786.55 700.5 800.5 600.5 600.5 600.5 786.55"/><polygon class="cls-4" points="700.5 614.41 800.5 600.5 700.5 500.5 700.5 614.41"/><polygon class="cls-4" points="800.5 786.55 900.5 800.5 800.5 600.5 800.5 786.55"/><polygon class="cls-4" points="900.5 614.41 1000.5 600.5 900.5 500.5 900.5 614.41"/><polygon class="cls-4" points="1000.5 786.55 1100.5 800.5 1000.5 600.5 1000.5 786.55"/><polygon class="cls-4" points="1100.5 614.41 1200.5 600.5 1100.5 500.5 1100.5 614.41"/><polygon class="cls-4" points="1200.5 786.55 1200.5 600.5 1200.5 786.55 1200.5 786.55"/><rect class="cls-4" x="0.5" y="900.5" height="186.05"/><polygon class="cls-4" points="0.5 900.5 0.5 1086.55 100.5 1100.5 0.5 900.5"/><polygon class="cls-4" points="100.5 914.41 200.5 900.5 100.5 800.5 100.5 914.41"/><polygon class="cls-4" points="200.5 1086.55 300.5 1100.5 200.5 900.5 200.5 1086.55"/><polygon class="cls-4" points="300.5 914.41 400.5 900.5 300.5 800.5 300.5 914.41"/><polygon class="cls-4" points="400.5 1086.55 500.5 1100.5 400.5 900.5 400.5 1086.55"/><polygon class="cls-4" points="500.5 914.41 600.5 900.5 500.5 800.5 500.5 914.41"/><polygon class="cls-4" points="600.5 1086.55 700.5 1100.5 600.5 900.5 600.5 1086.55"/><polygon class="cls-4" points="700.5 914.41 800.5 900.5 700.5 800.5 700.5 914.41"/><polygon class="cls-4" points="800.5 1086.55 900.5 1100.5 800.5 900.5 800.5 1086.55"/><polygon class="cls-4" points="900.5 914.41 1000.5 900.5 900.5 800.5 900.5 914.41"/><polygon class="cls-4" points="1000.5 1086.55 1100.5 1100.5 1000.5 900.5 1000.5 1086.55"/><polygon class="cls-4" points="1100.5 914.41 1200.5 900.5 1100.5 800.5 1100.5 914.41"/><polygon class="cls-4" points="1200.5 1086.55 1200.5 900.5 1200.5 1086.55 1200.5 1086.55"/><polygon class="cls-4" points="100.5 1200.5 200.5 1200.5 100.5 1100.5 100.5 1200.5"/><polygon class="cls-4" points="300.5 1200.5 400.5 1200.5 300.5 1100.5 300.5 1200.5"/><polygon class="cls-4" points="500.5 1200.5 600.5 1200.5 500.5 1100.5 500.5 1200.5"/><polygon class="cls-4" points="700.5 1200.5 800.5 1200.5 700.5 1100.5 700.5 1200.5"/><polygon class="cls-4" points="900.5 1200.5 1000.5 1200.5 900.5 1100.5 900.5 1200.5"/><polygon class="cls-4" points="1100.5 1200.5 1200.5 1200.5 1100.5 1100.5 1100.5 1200.5"/></g><g id="Layer_4" data-name="Layer 4"><polygon class="cls-5" points="100.5 0.5 0.5 0.5 100.5 14.41 100.5 0.5"/><polygon class="cls-5" points="200.5 186.55 200.5 0.5 100.5 200.5 200.5 186.55"/><polygon class="cls-5" points="300.5 0.5 200.5 0.5 300.5 14.41 300.5 0.5"/><polygon class="cls-5" points="400.5 186.55 400.5 0.5 300.5 200.5 400.5 186.55"/><polygon class="cls-5" points="500.5 0.5 400.5 0.5 500.5 14.41 500.5 0.5"/><polygon class="cls-5" points="600.5 186.55 600.5 0.5 500.5 200.5 600.5 186.55"/><polygon class="cls-5" points="700.5 0.5 600.5 0.5 700.5 14.41 700.5 0.5"/><polygon class="cls-5" points="800.5 186.55 800.5 0.5 700.5 200.5 800.5 186.55"/><polygon class="cls-5" points="900.5 0.5 800.5 0.5 900.5 14.41 900.5 0.5"/><polygon class="cls-5" points="1000.5 186.55 1000.5 0.5 900.5 200.5 1000.5 186.55"/><polygon class="cls-5" points="1100.5 0.5 1000.5 0.5 1100.5 14.41 1100.5 0.5"/><polygon class="cls-5" points="1200.5 186.55 1200.5 0.5 1100.5 200.5 1200.5 186.55"/><polygon class="cls-5" points="100.5 200.5 0.5 300.5 100.5 314.41 100.5 200.5"/><polygon class="cls-5" points="200.5 486.55 200.5 300.5 100.5 500.5 200.5 486.55"/><polygon class="cls-5" points="300.5 314.41 300.5 200.5 200.5 300.5 300.5 314.41"/><polygon class="cls-5" points="400.5 486.55 400.5 300.5 300.5 500.5 400.5 486.55"/><polygon class="cls-5" points="500.5 314.41 500.5 200.5 400.5 300.5 500.5 314.41"/><polygon class="cls-5" points="600.5 486.55 600.5 300.5 500.5 500.5 600.5 486.55"/><polygon class="cls-5" points="700.5 314.41 700.5 200.5 600.5 300.5 700.5 314.41"/><polygon class="cls-5" points="800.5 486.55 800.5 300.5 700.5 500.5 800.5 486.55"/><polygon class="cls-5" points="900.5 314.41 900.5 200.5 800.5 300.5 900.5 314.41"/><polygon class="cls-5" points="1000.5 486.55 1000.5 300.5 900.5 500.5 1000.5 486.55"/><polygon class="cls-5" points="1100.5 314.41 1100.5 200.5 1000.5 300.5 1100.5 314.41"/><polygon class="cls-5" points="1200.5 486.55 1200.5 300.5 1100.5 500.5 1200.5 486.55"/><polygon class="cls-5" points="100.5 500.5 0.5 600.5 100.5 614.41 100.5 500.5"/><polygon class="cls-5" points="200.5 786.55 200.5 600.5 100.5 800.5 200.5 786.55"/><polygon class="cls-5" points="300.5 614.41 300.5 500.5 200.5 600.5 300.5 614.41"/><polygon class="cls-5" points="400.5 786.55 400.5 600.5 300.5 800.5 400.5 786.55"/><polygon class="cls-5" points="500.5 614.41 500.5 500.5 400.5 600.5 500.5 614.41"/><polygon class="cls-5" points="600.5 786.55 600.5 600.5 500.5 800.5 600.5 786.55"/><polygon class="cls-5" points="700.5 614.41 700.5 500.5 600.5 600.5 700.5 614.41"/><polygon class="cls-5" points="800.5 786.55 800.5 600.5 700.5 800.5 800.5 786.55"/><polygon class="cls-5" points="900.5 614.41 900.5 500.5 800.5 600.5 900.5 614.41"/><polygon class="cls-5" points="1000.5 786.55 1000.5 600.5 900.5 800.5 1000.5 786.55"/><polygon class="cls-5" points="1100.5 614.41 1100.5 500.5 1000.5 600.5 1100.5 614.41"/><polygon class="cls-5" points="1200.5 786.55 1200.5 600.5 1100.5 800.5 1200.5 786.55"/><polygon class="cls-5" points="100.5 800.5 0.5 900.5 100.5 914.41 100.5 800.5"/><polygon class="cls-5" points="200.5 1086.55 200.5 900.5 100.5 1100.5 200.5 1086.55"/><polygon class="cls-5" points="300.5 914.41 300.5 800.5 200.5 900.5 300.5 914.41"/><polygon class="cls-5" points="400.5 1086.55 400.5 900.5 300.5 1100.5 400.5 1086.55"/><polygon class="cls-5" points="500.5 914.41 500.5 800.5 400.5 900.5 500.5 914.41"/><polygon class="cls-5" points="600.5 1086.55 600.5 900.5 500.5 1100.5 600.5 1086.55"/><polygon class="cls-5" points="700.5 914.41 700.5 800.5 600.5 900.5 700.5 914.41"/><polygon class="cls-5" points="800.5 1086.55 800.5 900.5 700.5 1100.5 800.5 1086.55"/><polygon class="cls-5" points="900.5 914.41 900.5 800.5 800.5 900.5 900.5 914.41"/><polygon class="cls-5" points="1000.5 1086.55 1000.5 900.5 900.5 1100.5 1000.5 1086.55"/><polygon class="cls-5" points="1100.5 914.41 1100.5 800.5 1000.5 900.5 1100.5 914.41"/><polygon class="cls-5" points="1200.5 1086.55 1200.5 900.5 1100.5 1100.5 1200.5 1086.55"/><polygon class="cls-5" points="0.5 1200.5 100.5 1200.5 100.5 1100.5 0.5 1200.5"/><polygon class="cls-5" points="200.5 1200.5 300.5 1200.5 300.5 1100.5 200.5 1200.5"/><polygon class="cls-5" points="400.5 1200.5 500.5 1200.5 500.5 1100.5 400.5 1200.5"/><polygon class="cls-5" points="600.5 1200.5 700.5 1200.5 700.5 1100.5 600.5 1200.5"/><polygon class="cls-5" points="800.5 1200.5 900.5 1200.5 900.5 1100.5 800.5 1200.5"/><polygon class="cls-5" points="1000.5 1200.5 1100.5 1200.5 1100.5 1100.5 1000.5 1200.5"/></g><g id="Layer_7" data-name="Layer 7"><rect class="cls-6" x="0.5" y="0.5" width="1200" height="1200"/><rect class="cls-7" x="0.5" y="0.5" width="1200" height="1200"/></g></g></svg>